<?xml version="1.0" standalone="no"?>
<!DOCTYPE svg PUBLIC "-//W3C//DTD SVG 20010904//EN"
 "http://www.w3.org/TR/2001/REC-SVG-20010904/DTD/svg10.dtd">
<svg version="1.0" xmlns="http://www.w3.org/2000/svg"
 width="200.000000pt" height="197.000000pt" viewBox="0 0 200.000000 197.000000"
 preserveAspectRatio="xMidYMid meet">

<g transform="translate(0.000000,197.000000) scale(0.100000,-0.100000)"
fill="#585858" stroke="none">
<path d="M1531 1867 c-73 -151 -324 -276 -631 -313 l-65 -8 70 -8 c309 -36
564 -168 632 -326 l16 -37 8 42 c12 65 58 150 113 205 51 52 169 117 216 119
17 1 6 7 -32 19 -148 46 -260 163 -293 304 l-11 50 -23 -47z"/>
<path d="M399 1664 c-31 -38 -118 -81 -209 -104 l-45 -12 70 -22 c86 -28 124
-47 170 -87 l35 -31 35 31 c46 40 85 60 170 86 l70 22 -74 22 c-70 21 -170 76
-185 100 -10 15 -21 14 -37 -5z"/>
<path d="M416 1314 c-27 -145 -156 -279 -307 -317 l-53 -14 40 -7 c144 -27
278 -157 315 -305 15 -60 17 -63 23 -35 11 48 77 126 151 176 112 78 284 136
482 163 59 8 82 13 57 14 -64 2 -210 29 -300 56 -180 55 -329 156 -377 257
l-24 51 -7 -39z"/>
<path d="M1534 1099 c-24 -27 -146 -86 -212 -102 l-54 -13 54 -12 c68 -16 150
-54 199 -93 l38 -30 28 26 c36 33 136 81 202 97 l52 12 -53 13 c-71 18 -151
56 -198 93 -37 29 -37 30 -56 9z"/>
<path d="M1530 743 c-30 -85 -170 -187 -338 -247 -83 -30 -253 -66 -308 -66
-61 0 -34 -10 72 -25 278 -42 507 -162 575 -302 l22 -46 13 51 c35 136 144
255 269 292 22 6 47 14 55 16 8 3 -15 15 -50 27 -81 27 -158 82 -206 148 -37
51 -74 135 -74 169 0 32 -15 23 -30 -17z"/>
<path d="M390 533 c-32 -32 -149 -89 -201 -98 -47 -8 -44 -20 8 -29 49 -7 149
-55 190 -90 l33 -28 39 31 c44 35 127 74 181 86 58 12 56 17 -18 40 -78 25
-147 61 -176 94 -23 25 -25 25 -56 -6z"/>
</g>
</svg>
